<svg width="1440" height="368" viewBox="0 0 1440 368" fill="none" xmlns="http://www.w3.org/2000/svg">
<path d="M0 0L30 21.3C60 43 120 85 180 112C240 139 300 149 360 154.7C420 160 480 160 540 138.7C600 117 660 75 720 64C780 53 840 75 900 90.7C960 107 1020 117 1080 96C1140 75 1200 21 1260 21.3C1320 21 1380 75 1410 101.3L1440 128V256H1410C1380 256 1320 256 1260 256C1200 256 1140 256 1080 256C1020 256 960 256 900 256C840 256 780 256 720 256C660 256 600 256 540 256C480 256 420 256 360 256C300 256 240 256 180 256C120 256 60 256 30 256H0V0Z" fill="#C7FCEC"/>
<path d="M0 207.445L48 191.445C96 175.445 192 143.445 288 154.145C384 164.445 480 218.445 576 239.445C672 260.445 768 250.445 864 218.145C960 186.445 1056 132.445 1152 122.145C1248 111.445 1344 143.445 1392 159.445L1440 175.445V367.445H1392C1344 367.445 1248 367.445 1152 367.445C1056 367.445 960 367.445 864 367.445C768 367.445 672 367.445 576 367.445C480 367.445 384 367.445 288 367.445C192 367.445 96 367.445 48 367.445H0V207.445Z" fill="#7FE4D3"/>
</svg>
