<svg width="1440" height="248" viewBox="0 0 1440 248" fill="none" xmlns="http://www.w3.org/2000/svg">
<path d="M0 87.4446L48 71.4446C96 55.4446 192 23.4446 288 34.1446C384 44.4446 480 98.4446 576 119.445C672 140.445 768 130.445 864 98.1446C960 66.4445 1056 12.4446 1152 2.14455C1248 -8.55545 1344 23.4446 1392 39.4446L1440 55.4446V247.445H1392C1344 247.445 1248 247.445 1152 247.445C1056 247.445 960 247.445 864 247.445C768 247.445 672 247.445 576 247.445C480 247.445 384 247.445 288 247.445C192 247.445 96 247.445 48 247.445H0V87.4446Z" fill="#7FE4D3"/>
</svg>
